<mxfile host="Electron" modified="2023-10-16T19:46:37.564Z" agent="Mozilla/5.0 (Macintosh; Intel Mac OS X 10_15_7) AppleWebKit/537.36 (KHTML, like Gecko) draw.io/22.0.2 Chrome/114.0.5735.289 Electron/25.8.4 Safari/537.36" etag="iUACkgM4QuEs-3x74Zty" version="22.0.2" type="device">
  <diagram name="Page-1" id="MzH7xkcM2_9qAgMpIrOI">
    <mxGraphModel dx="1434" dy="854" grid="1" gridSize="10" guides="1" tooltips="1" connect="1" arrows="1" fold="1" page="1" pageScale="1" pageWidth="1100" pageHeight="850" math="0" shadow="0">
      <root>
        <mxCell id="0" />
        <mxCell id="1" parent="0" />
        <mxCell id="KuQeQwhMHiBPMgDi5Lq1-3" value="" style="edgeStyle=orthogonalEdgeStyle;rounded=0;orthogonalLoop=1;jettySize=auto;html=1;endSize=12;exitX=1;exitY=0.5;exitDx=0;exitDy=0;" parent="1" source="KuQeQwhMHiBPMgDi5Lq1-1" target="KuQeQwhMHiBPMgDi5Lq1-2" edge="1">
          <mxGeometry relative="1" as="geometry" />
        </mxCell>
        <mxCell id="KuQeQwhMHiBPMgDi5Lq1-1" value="&lt;font style=&quot;font-size: 20px;&quot;&gt;Time-series&lt;br&gt;Prediction&lt;br&gt;(Section 3.5)&lt;br&gt;&lt;/font&gt;" style="rounded=1;whiteSpace=wrap;html=1;" parent="1" vertex="1">
          <mxGeometry x="290" y="160" width="180" height="100" as="geometry" />
        </mxCell>
        <mxCell id="KuQeQwhMHiBPMgDi5Lq1-5" value="" style="edgeStyle=orthogonalEdgeStyle;rounded=0;orthogonalLoop=1;jettySize=auto;html=1;endSize=12;" parent="1" source="KuQeQwhMHiBPMgDi5Lq1-2" target="KuQeQwhMHiBPMgDi5Lq1-4" edge="1">
          <mxGeometry relative="1" as="geometry" />
        </mxCell>
        <mxCell id="KuQeQwhMHiBPMgDi5Lq1-2" value="&lt;font style=&quot;font-size: 20px;&quot;&gt;Latency&lt;br&gt;Estimation&lt;br&gt;(Section 3.3)&lt;br&gt;&lt;/font&gt;" style="rounded=1;whiteSpace=wrap;html=1;" parent="1" vertex="1">
          <mxGeometry x="510" y="160" width="180" height="100" as="geometry" />
        </mxCell>
        <mxCell id="KuQeQwhMHiBPMgDi5Lq1-7" value="" style="edgeStyle=orthogonalEdgeStyle;rounded=0;orthogonalLoop=1;jettySize=auto;html=1;endSize=12;" parent="1" source="KuQeQwhMHiBPMgDi5Lq1-4" target="KuQeQwhMHiBPMgDi5Lq1-6" edge="1">
          <mxGeometry relative="1" as="geometry" />
        </mxCell>
        <mxCell id="KuQeQwhMHiBPMgDi5Lq1-4" value="&lt;font style=&quot;font-size: 20px;&quot;&gt;Per-job&lt;br&gt;Utility Function&lt;br&gt;(Section 3.1)&lt;br&gt;&lt;/font&gt;" style="rounded=1;whiteSpace=wrap;html=1;" parent="1" vertex="1">
          <mxGeometry x="730" y="160" width="180" height="100" as="geometry" />
        </mxCell>
        <mxCell id="KuQeQwhMHiBPMgDi5Lq1-9" value="" style="edgeStyle=orthogonalEdgeStyle;rounded=0;orthogonalLoop=1;jettySize=auto;html=1;endSize=12;" parent="1" source="KuQeQwhMHiBPMgDi5Lq1-6" target="KuQeQwhMHiBPMgDi5Lq1-8" edge="1">
          <mxGeometry relative="1" as="geometry" />
        </mxCell>
        <mxCell id="KuQeQwhMHiBPMgDi5Lq1-6" value="&lt;font style=&quot;font-size: 20px;&quot;&gt;Cluster Objective&lt;br&gt;Function&lt;br&gt;(Section 3.2)&lt;br&gt;&lt;/font&gt;" style="rounded=1;whiteSpace=wrap;html=1;" parent="1" vertex="1">
          <mxGeometry x="730" y="300" width="180" height="100" as="geometry" />
        </mxCell>
        <mxCell id="KuQeQwhMHiBPMgDi5Lq1-11" value="" style="edgeStyle=orthogonalEdgeStyle;rounded=0;orthogonalLoop=1;jettySize=auto;html=1;endSize=12;" parent="1" source="KuQeQwhMHiBPMgDi5Lq1-8" target="KuQeQwhMHiBPMgDi5Lq1-10" edge="1">
          <mxGeometry relative="1" as="geometry" />
        </mxCell>
        <mxCell id="KuQeQwhMHiBPMgDi5Lq1-8" value="&lt;font style=&quot;font-size: 20px;&quot;&gt;Optimization&lt;br&gt;via Relaxation&lt;br&gt;(Section 3.4)&lt;br&gt;&lt;/font&gt;" style="rounded=1;whiteSpace=wrap;html=1;" parent="1" vertex="1">
          <mxGeometry x="510" y="300" width="180" height="100" as="geometry" />
        </mxCell>
        <mxCell id="KuQeQwhMHiBPMgDi5Lq1-10" value="&lt;font style=&quot;font-size: 20px;&quot;&gt;Multi-tenant&lt;br&gt;Autoscaler&lt;br&gt;(Section 4)&lt;br&gt;&lt;/font&gt;" style="rounded=1;whiteSpace=wrap;html=1;" parent="1" vertex="1">
          <mxGeometry x="290" y="300" width="180" height="100" as="geometry" />
        </mxCell>
        <mxCell id="KuQeQwhMHiBPMgDi5Lq1-13" value="" style="edgeStyle=orthogonalEdgeStyle;rounded=0;orthogonalLoop=1;jettySize=auto;html=1;entryX=0;entryY=0.5;entryDx=0;entryDy=0;endSize=12;" parent="1" target="KuQeQwhMHiBPMgDi5Lq1-1" edge="1">
          <mxGeometry relative="1" as="geometry">
            <mxPoint x="240" y="210" as="sourcePoint" />
            <mxPoint x="290" y="209.8" as="targetPoint" />
          </mxGeometry>
        </mxCell>
        <mxCell id="KuQeQwhMHiBPMgDi5Lq1-15" value="" style="edgeStyle=orthogonalEdgeStyle;rounded=0;orthogonalLoop=1;jettySize=auto;html=1;exitX=0;exitY=0.5;exitDx=0;exitDy=0;endSize=12;" parent="1" source="KuQeQwhMHiBPMgDi5Lq1-10" edge="1">
          <mxGeometry relative="1" as="geometry">
            <mxPoint x="290" y="349.68" as="sourcePoint" />
            <mxPoint x="240" y="350" as="targetPoint" />
          </mxGeometry>
        </mxCell>
        <mxCell id="KuQeQwhMHiBPMgDi5Lq1-17" value="&lt;font style=&quot;font-size: 19px;&quot;&gt;Metrics&lt;br&gt;&lt;/font&gt;" style="text;html=1;strokeColor=none;fillColor=none;align=center;verticalAlign=middle;whiteSpace=wrap;rounded=0;" parent="1" vertex="1">
          <mxGeometry x="140" y="195" width="90" height="30" as="geometry" />
        </mxCell>
        <mxCell id="KuQeQwhMHiBPMgDi5Lq1-19" value="&lt;font style=&quot;font-size: 19px;&quot;&gt;Autoscaling&lt;br&gt;actions&lt;br&gt;&lt;/font&gt;" style="text;html=1;strokeColor=none;fillColor=none;align=center;verticalAlign=middle;whiteSpace=wrap;rounded=0;" parent="1" vertex="1">
          <mxGeometry x="140" y="335" width="90" height="30" as="geometry" />
        </mxCell>
      </root>
    </mxGraphModel>
  </diagram>
</mxfile>
